<svg width="24" height="24" fill="none" xmlns="http://www.w3.org/2000/svg"><path fill-rule="evenodd" clip-rule="evenodd" d="M15.499 7.393c0 1.837-1.53 3.393-3.5 3.393S8.5 9.23 8.5 7.393C8.5 5.556 10.03 4 12 4s3.5 1.556 3.5 3.393zm-.245 4.347c1.361-.981 2.245-2.563 2.245-4.347 0-2.979-2.462-5.393-5.5-5.393-3.037 0-5.5 2.414-5.5 5.393 0 1.784.884 3.366 2.246 4.348-3.495 1.291-5.995 4.604-5.995 8.51a1 1 0 102 0c0-3.897 3.227-7.09 7.25-7.09 4.022 0 7.25 3.193 7.25 7.09a1 1 0 102 0c0-3.907-2.5-7.219-5.996-8.51z" fill="#9400B5"/></svg>