<svg width="60" height="60" fill="none" xmlns="http://www.w3.org/2000/svg"><path d="M42.245 22.653v-4.898C42.245 10.898 36.857 5.51 30 5.51c-6.857 0-12.245 5.388-12.245 12.245v4.898c-4.163 0-7.347 3.184-7.347 7.347v17.143c0 4.163 3.184 7.347 7.347 7.347h24.49c4.163 0 7.347-3.184 7.347-7.347V30c0-4.163-3.184-7.347-7.347-7.347zm-19.592-4.898c0-4.163 3.184-7.347 7.347-7.347s7.347 3.184 7.347 7.347v4.898H22.653v-4.898zm10.04 20.816l-.244.245v3.429c0 1.47-.98 2.449-2.449 2.449-1.47 0-2.449-.98-2.449-2.45v-3.428c-1.47-1.47-1.714-3.673-.245-5.143 1.47-1.469 3.674-1.714 5.143-.244 1.47 1.224 1.714 3.673.245 5.142z" fill="#9400B5"/></svg>