<svg width="180" height="180" viewBox="0 0 180 180" fill="none" xmlns="http://www.w3.org/2000/svg">
<g filter="url(#filter0_b_53_641)">
<path d="M84.0864 6.49066C87.2596 3.00782 92.7404 3.00782 95.9136 6.49066L105.181 16.6622C107.286 18.9726 110.544 19.8455 113.522 18.8972L126.633 14.722C131.123 13.2924 135.869 16.0328 136.876 20.6356L139.816 34.078C140.484 37.1314 142.869 39.5163 145.922 40.1841L159.364 43.124C163.967 44.1306 166.708 48.8772 165.278 53.3667L161.103 66.4781C160.154 69.4563 161.027 72.7141 163.338 74.8191L173.509 84.0864C176.992 87.2596 176.992 92.7404 173.509 95.9136L163.338 105.181C161.027 107.286 160.154 110.544 161.103 113.522L165.278 126.633C166.708 131.123 163.967 135.869 159.364 136.876L145.922 139.816C142.869 140.484 140.484 142.869 139.816 145.922L136.876 159.364C135.869 163.967 131.123 166.708 126.633 165.278L113.522 161.103C110.544 160.154 107.286 161.027 105.181 163.338L95.9136 173.509C92.7404 176.992 87.2596 176.992 84.0864 173.509L74.8191 163.338C72.7141 161.027 69.4563 160.154 66.4781 161.103L53.3667 165.278C48.8772 166.708 44.1306 163.967 43.124 159.364L40.1841 145.922C39.5163 142.869 37.1314 140.484 34.078 139.816L20.6356 136.876C16.0328 135.869 13.2924 131.123 14.722 126.633L18.8972 113.522C19.8455 110.544 18.9726 107.286 16.6622 105.181L6.49066 95.9136C3.00782 92.7404 3.00782 87.2596 6.49066 84.0864L16.6622 74.8191C18.9726 72.7141 19.8455 69.4563 18.8972 66.4781L14.722 53.3667C13.2924 48.8772 16.0328 44.1306 20.6356 43.124L34.078 40.1841C37.1314 39.5163 39.5163 37.1314 40.1841 34.078L43.124 20.6356C44.1306 16.0328 48.8772 13.2924 53.3667 14.722L66.4781 18.8972C69.4563 19.8455 72.7141 18.9726 74.8191 16.6622L84.0864 6.49066Z" fill="#9400B5" fill-opacity="0.05"/>
<path d="M84.8256 7.16414C87.6021 4.11666 92.3979 4.11666 95.1744 7.16414L104.442 17.3357C106.81 19.9349 110.475 20.9169 113.825 19.85L126.937 15.6748C130.865 14.4239 135.018 16.8218 135.899 20.8493L138.839 34.2917C139.59 37.7268 142.273 40.4097 145.708 41.161L159.151 44.1009C163.178 44.9817 165.576 49.1349 164.325 53.0632L160.15 66.1747C159.083 69.5252 160.065 73.1902 162.664 75.5583L172.836 84.8256C175.883 87.6021 175.883 92.3979 172.836 95.1744L162.664 104.442C160.065 106.81 159.083 110.475 160.15 113.825L164.325 126.937C165.576 130.865 163.178 135.018 159.151 135.899L145.708 138.839C142.273 139.59 139.59 142.273 138.839 145.708L135.899 159.151C135.018 163.178 130.865 165.576 126.937 164.325L113.825 160.15C110.475 159.083 106.81 160.065 104.442 162.664L95.1744 172.836C92.3979 175.883 87.6021 175.883 84.8256 172.836L75.5583 162.664C73.1902 160.065 69.5252 159.083 66.1747 160.15L53.0632 164.325C49.1349 165.576 44.9817 163.178 44.1009 159.151L41.161 145.708C40.4097 142.273 37.7268 139.59 34.2917 138.839L20.8493 135.899C16.8218 135.018 14.4239 130.865 15.6748 126.937L19.85 113.825C20.9169 110.475 19.9349 106.81 17.3357 104.442L7.16414 95.1744C4.11666 92.3979 4.11666 87.6021 7.16414 84.8256L17.3357 75.5583C19.9349 73.1902 20.9169 69.5252 19.85 66.1747L15.6748 53.0632C14.4239 49.1349 16.8218 44.9817 20.8492 44.1009L34.2917 41.161C37.7267 40.4097 40.4097 37.7268 41.161 34.2917L44.1009 20.8493C44.9817 16.8218 49.1349 14.4239 53.0632 15.6748L66.1747 19.85C69.5252 20.9169 73.1902 19.9349 75.5583 17.3357L84.8256 7.16414Z" stroke="#9400B5" stroke-opacity="0.5" stroke-width="2"/>
</g>
<path d="M102.245 82.653V77.7551C102.245 70.8979 96.8572 65.5102 90 65.5102C83.1429 65.5102 77.7551 70.8979 77.7551 77.7551V82.653C73.5919 82.653 70.4082 85.8367 70.4082 90V107.143C70.4082 111.306 73.5919 114.49 77.7551 114.49H102.245C106.408 114.49 109.592 111.306 109.592 107.143V90C109.592 85.8367 106.408 82.653 102.245 82.653ZM82.6531 77.7551C82.6531 73.5918 85.8368 70.4082 90 70.4082C94.1633 70.4082 97.347 73.5918 97.347 77.7551V82.653H82.6531V77.7551ZM92.6939 98.5714L92.449 98.8163V102.245C92.449 103.714 91.4694 104.694 90 104.694C88.5307 104.694 87.5511 103.714 87.5511 102.245V98.8163C86.0817 97.3469 85.8368 95.1428 87.3062 93.6735C88.7755 92.2041 90.9796 91.9592 92.449 93.4286C93.9184 94.653 94.1633 97.102 92.6939 98.5714Z" fill="#9400B5"/>
<defs>
<filter id="filter0_b_53_641" x="-20.1216" y="-20.1215" width="220.243" height="220.243" filterUnits="userSpaceOnUse" color-interpolation-filters="sRGB">
<feFlood flood-opacity="0" result="BackgroundImageFix"/>
<feGaussianBlur in="BackgroundImage" stdDeviation="12"/>
<feComposite in2="SourceAlpha" operator="in" result="effect1_backgroundBlur_53_641"/>
<feBlend mode="normal" in="SourceGraphic" in2="effect1_backgroundBlur_53_641" result="shape"/>
</filter>
</defs>
</svg>
