<svg width="136" height="40" fill="none" xmlns="http://www.w3.org/2000/svg"><g clip-path="url(#clip0_53_814)"><path d="M59.133 13.22a5.02 5.02 0 01.647-1.884 4.942 4.942 0 011.326-1.474 7.174 7.174 0 014.337-1.172l-.427 2.57a16.68 16.68 0 00-1.329 1.477l.259.178a14.257 14.257 0 013.498-3.224 6.918 6.918 0 013.602-1 3.903 3.903 0 012.729.979 4.992 4.992 0 011.462 2.74 9.25 9.25 0 013.176-2.74 8.715 8.715 0 014.078-.958 5.012 5.012 0 012.147.366 5.078 5.078 0 011.799 1.245 5.9 5.9 0 011.15 1.982 5.99 5.99 0 01.312 2.278 9.924 9.924 0 01-.168 1.874l-1.98 11.36a3.644 3.644 0 01-.613 1.55c-.32.461-.743.84-1.234 1.105a9.667 9.667 0 01-4.547.83l2.49-14.334c.056-.473.084-.778.084-.915 0-1.543-.73-2.315-2.19-2.315-.49-.007-.976.09-1.426.286a3.507 3.507 0 00-1.19.85 5.848 5.848 0 00-1.399 3.138l-1.713 9.805a3.666 3.666 0 01-.615 1.549 3.6 3.6 0 01-1.232 1.106 9.308 9.308 0 01-4.463.83l2.49-14.334c.056-.473.084-.778.084-.915a2.363 2.363 0 00-.56-1.704 1.984 1.984 0 00-1.588-.61 3.43 3.43 0 00-1.459.294 3.5 3.5 0 00-1.206.884 6.574 6.574 0 00-1.4 3.315l-1.671 9.585a3.523 3.523 0 01-.6 1.559 3.46 3.46 0 01-1.247 1.096 9.722 9.722 0 01-4.554.83l3.141-18.082zm-11.36-1.015c.09-.557.308-1.084.636-1.539a3.562 3.562 0 011.252-1.081 9.668 9.668 0 014.596-.866l-3.28 19.084a3.509 3.509 0 01-.618 1.567 3.44 3.44 0 01-1.272 1.088 9.999 9.999 0 01-4.596.83l3.281-19.083zm3.868-5.148a3.464 3.464 0 01-2.365-.78 2.704 2.704 0 01-.68-.946 2.74 2.74 0 01-.222-1.15 3.904 3.904 0 01.354-1.632 3.85 3.85 0 011.003-1.328 4.516 4.516 0 013.176-1.22 3.28 3.28 0 012.316.83 2.575 2.575 0 01.902 2.045 3.905 3.905 0 01-.353 1.637 3.85 3.85 0 01-1.004 1.33 4.406 4.406 0 01-3.106 1.214h-.021zM34.85 31.29a6.365 6.365 0 01-4.567-1.655 5.936 5.936 0 01-1.318-2.039 6.006 6.006 0 01-.396-2.405 9.564 9.564 0 01.125-1.526l3.498-20.178a3.665 3.665 0 01.615-1.549A3.6 3.6 0 0134.04.831 10.115 10.115 0 0138.678 0L34.6 23.428a7.26 7.26 0 00-.084.874 1.736 1.736 0 00.51 1.42 2.87 2.87 0 001.763.44 7.392 7.392 0 003.365-.874 2.511 2.511 0 01.7 1.832 3.59 3.59 0 01-.484 1.706c-.301.518-.727.95-1.237 1.255a7.114 7.114 0 01-4.26 1.207h-.021zm-22.679 0c-3.73 0-6.709-.597-8.933-1.79-2.225-1.192-3.304-2.832-3.24-4.92 0-3.194 1.99-4.794 5.968-4.799-.033.35-.047.7-.042 1.05a4.97 4.97 0 00.383 2.234 4.9 4.9 0 001.331 1.82c1.147.895 2.798 1.35 4.98 1.35a8.752 8.752 0 004.856-1.179 3.695 3.695 0 001.322-1.368c.315-.566.48-1.205.476-1.855a2.148 2.148 0 00-.553-1.512 4.835 4.835 0 00-1.938-1.172 25.051 25.051 0 00-3.777-1.178c-3.405-.824-5.91-1.889-7.514-3.195a6.253 6.253 0 01-1.755-2.227 6.348 6.348 0 01-.602-2.786A8.803 8.803 0 014.68 4.58a9.879 9.879 0 014.505-3.43 18.845 18.845 0 016.954-1.178 18.746 18.746 0 015.666.788 8.886 8.886 0 013.868 2.222c.439.402.79.893 1.03 1.44a4.38 4.38 0 01.37 1.74c0 2.84-1.917 4.336-5.75 4.488a9.57 9.57 0 00.055-.98c0-1.595-.466-2.757-1.399-3.486-.933-.729-2.355-1.105-4.267-1.129a8.418 8.418 0 00-4.638 1.065A3.27 3.27 0 009.83 7.364 3.333 3.333 0 009.4 9.08a2.444 2.444 0 001.246 2.094c1.406.728 2.91 1.24 4.463 1.52 3.587.866 6.22 1.987 7.898 3.365a6.269 6.269 0 011.879 2.26c.44.893.664 1.88.654 2.88a9.104 9.104 0 01-1.63 5.403 9.995 9.995 0 01-4.639 3.486 18.687 18.687 0 01-7.079 1.2h-.02z" fill="#FF7900"/><path d="M113.243 40a2.994 2.994 0 01-1.28-.196 3.033 3.033 0 01-1.084-.72 3.962 3.962 0 01-.77-2.613c.007-.51.049-1.02.126-1.526a9.99 9.99 0 002.232.263 3.913 3.913 0 002.623-.873c1.03-.937 1.9-2.04 2.575-3.266l.902-1.484-4.722-20.39a3.77 3.77 0 011.084-.306 6.64 6.64 0 011.399-.17 4.322 4.322 0 012.407.61c.302.155.566.376.773.648.207.271.351.586.423.921l2.232 11.36-1.071 2.13.343.135 7.646-13.639a3.775 3.775 0 011.714-1.569 5.641 5.641 0 012.617-.61 7.343 7.343 0 011.504.17c.375.03.741.133 1.077.305l-13.648 23.635a18.983 18.983 0 01-4.38 5.488A7.326 7.326 0 01113.243 40zM94.516 3.316a3.271 3.271 0 011.288-2.052A3.722 3.722 0 0198.21.398h19.518a8.592 8.592 0 01-1.679 4.181 4.189 4.189 0 01-1.47 1.006 4.142 4.142 0 01-1.748.3H100.4l-1.162 6.668h11.249a8.677 8.677 0 01-1.672 4.217 4.19 4.19 0 01-1.494.992 4.144 4.144 0 01-1.766.271h-7.261l-1.553 8.854a4.76 4.76 0 01-.68 1.922 4.681 4.681 0 01-1.419 1.45c-1.091.7-2.751 1.051-4.98 1.051l4.854-27.994z" fill="#9400B5"/></g><defs><clipPath id="clip0_53_814"><path fill="#fff" d="M0 0h136v40H0z"/></clipPath></defs></svg>