<svg width="64" height="64" fill="none" xmlns="http://www.w3.org/2000/svg"><path d="M18.63 24v.007c-.008 0-2.267-.007-2.87 2.152-.551 1.98-2.108 7.441-2.15 7.592h-.431s-1.592-5.584-2.152-7.6C10.425 23.993 8.16 24 8.16 24H3v16.418h5.161v-9.75h.43l3.013 9.75h3.583l3.012-9.744h.43v9.744h5.162V24h-5.162zm18.854 0s-1.513.136-2.223 1.721l-3.656 8.03h-.43V24h-5.161v16.418h4.874s1.585-.143 2.295-1.72l3.584-8.03h.43v9.75h5.161V24h-4.874zm7.17 7.456v8.962h5.16v-5.233h5.592a5.585 5.585 0 005.269-3.726H44.653v-.003z" fill="#4DB45E"/><path d="M55.409 24h-11.48a8.247 8.247 0 008.109 6.74h8.847c.08-.374.115-.754.115-1.148A5.59 5.59 0 0055.41 24z" fill="url(#paint0_linear_53_681)"/><defs><linearGradient id="paint0_linear_53_681" x1="43.929" y1="27.369" x2="61" y2="27.369" gradientUnits="userSpaceOnUse"><stop offset=".3" stop-color="#00B4E6"/><stop offset="1" stop-color="#088CCB"/></linearGradient></defs></svg>