<svg width="64" height="64" viewBox="0 0 64 64" fill="none" xmlns="http://www.w3.org/2000/svg">
<path d="M18.6295 24V24.0072C18.6223 24.0072 16.3632 24 15.7608 26.1587C15.2086 28.1381 13.6523 33.6005 13.6093 33.7511H13.179C13.179 33.7511 11.5869 28.1668 11.0275 26.1515C10.4251 23.9928 8.15883 24 8.15883 24H3V40.4184H8.16123V30.6672H8.59153L11.6036 40.4183H15.1871L18.1992 30.6744H18.6295V40.4183H23.7907V24H18.6295ZM37.4839 24C37.4839 24 35.9706 24.1363 35.2606 25.7213L31.6055 33.7511H31.1752V24H26.0139V40.4184H30.8883C30.8883 40.4184 32.4732 40.275 33.1833 38.6972L36.7668 30.6673H37.1971V40.4184H42.3583V24H37.4839ZM44.6532 31.4562V40.4184H49.8144V35.1854H55.406C57.8444 35.1854 59.9074 33.6292 60.6748 31.4586H44.6532V31.4562Z" fill="#4DB45E"/>
<path d="M55.4087 24H43.9292C44.5029 27.1269 46.848 29.6346 49.8792 30.4521C50.5829 30.6427 51.3088 30.7392 52.0379 30.7391H60.8854C60.9642 30.3661 61.0001 29.986 61.0001 29.5916C61.0002 26.5029 58.4973 24 55.4087 24Z" fill="url(#paint0_linear_53_681)"/>
<defs>
<linearGradient id="paint0_linear_53_681" x1="43.9292" y1="27.3695" x2="61.0001" y2="27.3695" gradientUnits="userSpaceOnUse">
<stop offset="0.3" stop-color="#00B4E6"/>
<stop offset="1" stop-color="#088CCB"/>
</linearGradient>
</defs>
</svg>
