<svg width="174" height="174" fill="none" xmlns="http://www.w3.org/2000/svg"><g filter="url(#filter0_b_53_642)"><path d="M81.086 3.49C84.26.009 89.74.009 92.914 3.49l9.267 10.172a8 8 0 008.341 2.235l13.111-4.175c4.49-1.43 9.236 1.31 10.243 5.914l2.94 13.442a8 8 0 006.106 6.106l13.442 2.94c4.603 1.007 7.344 5.753 5.914 10.243l-4.175 13.111a7.998 7.998 0 002.235 8.341l10.171 9.267c3.483 3.174 3.483 8.654 0 11.828l-10.171 9.267a7.998 7.998 0 00-2.235 8.341l4.175 13.111c1.43 4.49-1.311 9.236-5.914 10.243l-13.442 2.94a8.002 8.002 0 00-6.106 6.106l-2.94 13.442c-1.007 4.603-5.753 7.344-10.243 5.914l-13.111-4.175a7.998 7.998 0 00-8.341 2.235l-9.267 10.171c-3.174 3.483-8.654 3.483-11.828 0l-9.267-10.171a7.998 7.998 0 00-8.34-2.235l-13.112 4.175c-4.49 1.43-9.236-1.311-10.243-5.914l-2.94-13.442a8 8 0 00-6.106-6.106l-13.442-2.94c-4.603-1.007-7.344-5.753-5.914-10.243l4.175-13.111a8 8 0 00-2.235-8.341L3.491 92.914C.008 89.74.008 84.26 3.49 81.086l10.171-9.267a8 8 0 002.235-8.34l-4.175-13.112c-1.43-4.49 1.31-9.236 5.914-10.243l13.442-2.94a8 8 0 006.106-6.106l2.94-13.442c1.007-4.603 5.753-7.344 10.243-5.914l13.111 4.175a8 8 0 008.341-2.235l9.267-10.171z" fill="#9400B5" fill-opacity=".05"/><path d="M81.826 4.164c2.776-3.047 7.572-3.047 10.348 0l9.268 10.172a9 9 0 009.383 2.514l13.112-4.175c3.928-1.251 8.081 1.147 8.962 5.174l2.94 13.443a9 9 0 006.869 6.869l13.443 2.94c4.027.88 6.425 5.034 5.174 8.962l-4.175 13.112a9 9 0 002.514 9.383l10.172 9.268c3.047 2.776 3.047 7.572 0 10.348l-10.172 9.268a9 9 0 00-2.514 9.383l4.175 13.112c1.251 3.928-1.147 8.081-5.174 8.962l-13.443 2.94a8.999 8.999 0 00-6.869 6.869l-2.94 13.443c-.881 4.027-5.034 6.425-8.962 5.174l-13.112-4.175a9 9 0 00-9.383 2.514l-9.268 10.172c-2.776 3.047-7.572 3.047-10.348 0l-9.268-10.172a9 9 0 00-9.383-2.514l-13.112 4.175c-3.928 1.251-8.081-1.147-8.962-5.174l-2.94-13.443a9 9 0 00-6.87-6.869l-13.442-2.94c-4.027-.881-6.425-5.034-5.174-8.962l4.175-13.112a9 9 0 00-2.514-9.383L4.164 92.174c-3.047-2.776-3.047-7.572 0-10.348l10.172-9.268a9 9 0 002.514-9.383l-4.175-13.112c-1.251-3.928 1.147-8.081 5.174-8.962l13.443-2.94a9 9 0 006.869-6.87l2.94-13.442c.88-4.027 5.034-6.425 8.962-5.174l13.112 4.175a9 9 0 009.383-2.514l9.268-10.172z" stroke="#9400B5" stroke-opacity=".5" stroke-width="2"/></g><defs><filter id="filter0_b_53_642" x="-23.122" y="-23.122" width="220.243" height="220.243" filterUnits="userSpaceOnUse" color-interpolation-filters="sRGB"><feFlood flood-opacity="0" result="BackgroundImageFix"/><feGaussianBlur in="BackgroundImage" stdDeviation="12"/><feComposite in2="SourceAlpha" operator="in" result="effect1_backgroundBlur_53_642"/><feBlend in="SourceGraphic" in2="effect1_backgroundBlur_53_642" result="shape"/></filter></defs></svg>